<svg width="44" height="37" viewBox="0 0 44 37" fill="none" xmlns="http://www.w3.org/2000/svg">
<path d="M42 31.0909C42 32.0553 41.6169 32.9803 40.9349 33.6622C40.253 34.3442 39.3281 34.7273 38.3636 34.7273H5.63636C4.67194 34.7273 3.74702 34.3442 3.06507 33.6622C2.38312 32.9803 2 32.0553 2 31.0909V11.0909C2 10.1265 2.38312 9.20156 3.06507 8.51961C3.74702 7.83766 4.67194 7.45455 5.63636 7.45455H12.9091L16.5455 2H27.4545L31.0909 7.45455H38.3636C39.3281 7.45455 40.253 7.83766 40.9349 8.51961C41.6169 9.20156 42 10.1265 42 11.0909V31.0909Z" stroke="#C74C4C" stroke-width="4" stroke-linecap="round" stroke-linejoin="round"/>
<path d="M21.9999 27.4546C26.0165 27.4546 29.2726 24.1985 29.2726 20.1818C29.2726 16.1652 26.0165 12.9091 21.9999 12.9091C17.9833 12.9091 14.7271 16.1652 14.7271 20.1818C14.7271 24.1985 17.9833 27.4546 21.9999 27.4546Z" stroke="#C74C4C" stroke-width="4" stroke-linecap="round" stroke-linejoin="round"/>
</svg>
