<svg width="26" height="29" viewBox="0 0 26 29" fill="none" xmlns="http://www.w3.org/2000/svg">
<path d="M2 7.17459H4.44444H24" stroke="#C74C4C" stroke-width="4" stroke-linecap="round" stroke-linejoin="round"/>
<path d="M21.5556 7.17459V24.2857C21.5556 24.934 21.298 25.5558 20.8396 26.0142C20.3812 26.4726 19.7594 26.7301 19.1111 26.7301H6.8889C6.2406 26.7301 5.61884 26.4726 5.16042 26.0142C4.702 25.5558 4.44446 24.934 4.44446 24.2857V7.17459M8.11112 7.17459V4.73015C8.11112 4.08184 8.36866 3.46009 8.82709 3.00167C9.28551 2.54324 9.90726 2.28571 10.5556 2.28571H15.4445C16.0928 2.28571 16.7145 2.54324 17.1729 3.00167C17.6314 3.46009 17.8889 4.08184 17.8889 4.73015V7.17459" stroke="#C74C4C" stroke-width="4" stroke-linecap="round" stroke-linejoin="round"/>
</svg>
